<?xml version="1.0" encoding="utf-8"?>
<!-- Generator: Adobe Illustrator 21.0.0, SVG Export Plug-In . SVG Version: 6.00 Build 0)  -->
<svg version="1.1" id="Layer_1" xmlns="http://www.w3.org/2000/svg" xmlns:xlink="http://www.w3.org/1999/xlink" x="0px" y="0px"
	 viewBox="0 0 595 166" style="enable-background:new 0 0 595 166;" xml:space="preserve">
<style type="text/css">
	.st0{fill:#FFFFFF;}
	.st1{clip-path:url(#SVGID_2_);}
	.st2{clip-path:url(#SVGID_4_);}
</style>
<path class="st0" d="M433,102.9c-0.9,0-1.8-0.3-2.4-1l-16.2-16.5c-1-1-1.2-2.4-0.7-3.7c0.5-1.3,1.7-2,3-2h6.9c3,0,5.6-2.3,5.6-4.9
	c0-2.5-2.6-4.8-5.6-4.8h-13.1c0,0-0.1,0.1-0.1,0.2v29.4c0,1.9-1.5,3.4-3.4,3.4c-1.8,0-3.3-1.5-3.3-3.4V70.2c0-3.8,3-6.8,6.7-6.8
	h13.1c6.7,0,12.2,5.1,12.2,11.4c0,6-5,11.1-11.1,11.6l10.6,10.9c0.7,0.7,1.1,1.6,1.1,2.6c0,0.9-0.5,1.8-1.1,2.4
	C434.6,102.7,433.8,102.9,433,102.9z M432.3,100.3C432.4,100.3,432.4,100.3,432.3,100.3L432.3,100.3z M525.8,102.9
	c-5.8,0-10.3-1.6-13.4-4.8c-3.2-3.2-4.8-7.9-4.8-13.9V66.4c0-1.9,1.5-3.4,3.3-3.4c1.9,0,3.4,1.5,3.4,3.4v17.8c0,8.3,3.6,12,11.7,12
	c8.2,0,11.7-3.6,11.8-12V66.4c0-1.9,1.5-3.4,3.3-3.4c1.8,0,3.3,1.5,3.3,3.4v17.8c0,12.1-6.5,18.7-18.4,18.7
	C525.9,102.9,525.9,102.9,525.8,102.9z M591.7,102.9c-1.8,0-3.4-1.5-3.4-3.4V69.9c-0.1-0.1-0.1,0-0.2,0L580.2,83
	c-1.2,2.1-3.4,3.3-5.8,3.3c-2.4,0-4.5-1.2-5.8-3.3l-7.9-13c-0.1-0.1-0.1-0.1-0.1-0.1l-0.1,29.7c0,1.9-1.5,3.4-3.4,3.4
	c-1.8,0-3.3-1.5-3.3-3.4V69.9c0-3.8,3-6.8,6.7-6.8c2.3,0,4.5,1.3,5.8,3.4l7.9,13c0.1,0.1,0.1,0.1,0.1,0.1c0,0,0.1-0.1,0.1-0.2
	l7.9-13c1.3-2.2,3.4-3.4,5.8-3.4c3.7,0,6.7,3.1,6.7,6.8v29.6C595,101.4,593.5,102.9,591.7,102.9z M494.3,102.9
	c-1.8,0-3.3-1.5-3.3-3.4V66.5c0-1.9,1.5-3.4,3.3-3.4c1.9,0,3.4,1.5,3.4,3.4v33.1C497.6,101.4,496.1,102.9,494.3,102.9z M374.2,102.9
	c-12.6,0-21.1-8-21.1-19.9c0-11.7,8.7-19.9,21.1-19.9c12.6,0,21.1,8,21.1,19.9C395.3,94.9,386.8,102.9,374.2,102.9z M374.2,69.8
	c-9,0-14.5,4.9-14.5,13.2c0,8.3,5.4,13.2,14.5,13.2c9.1,0,14.5-4.9,14.5-13.2C388.6,74.8,383.2,69.8,374.2,69.8z M330,102.9
	c-12.6,0-21.1-8-21.1-19.9c0-11.7,8.7-19.9,21.1-19.9c6.1,0,11.4,1.8,15.2,5.3c0.7,0.6,1,1.4,1.1,2.3c0.1,0.9-0.2,1.8-0.8,2.4
	c-0.6,0.7-1.4,1.1-2.3,1.1c-0.9,0.1-1.8-0.2-2.4-0.9c-2.5-2.3-6.2-3.5-10.7-3.5c-9.1,0-14.5,4.9-14.5,13.2c0,8.2,5.4,13.2,14.5,13.2
	c4.5,0,8.2-1.2,10.7-3.5c0.7-0.6,1.5-0.9,2.4-0.9c0.9,0.1,1.7,0.4,2.3,1.1c1.2,1.4,1.1,3.5-0.3,4.8
	C341.4,101.1,336.2,102.9,330,102.9z M342.3,94.4C342.3,94.4,342.3,94.4,342.3,94.4C342.3,94.4,342.3,94.4,342.3,94.4z M294,102.9
	c-2.4,0-4.5-1.2-5.8-3.3L270.7,70c-0.1-0.1-0.1-0.1-0.1-0.1l-0.1,29.7c0,1.9-1.5,3.4-3.3,3.4c-1.8,0-3.4-1.5-3.4-3.4V69.9
	c0-3.8,3-6.8,6.7-6.8c2.4,0,4.5,1.3,5.8,3.4l17.5,29.6c0,0,0.1,0.1,0.1,0.1c0.1,0,0.1-0.1,0.1-0.1V66.5c0-1.9,1.5-3.4,3.3-3.4
	c1.9,0,3.4,1.5,3.4,3.4v29.6C300.7,99.8,297.7,102.9,294,102.9z M234.3,102.9c-12.6,0-21.1-8-21.1-19.9c0-11.7,8.7-19.9,21.1-19.9
	c12.6,0,21.1,8,21.1,19.9C255.4,94.9,247,102.9,234.3,102.9z M234.3,69.8c-9.1,0-14.5,4.9-14.5,13.2c0,8.3,5.4,13.2,14.5,13.2
	c9.1,0,14.5-4.9,14.5-13.2C248.8,74.8,243.4,69.8,234.3,69.8z M190.2,102.9c-12.6,0-21.1-8-21.1-19.9c0-11.7,8.7-19.9,21.1-19.9
	c6.1,0,11.4,1.8,15.2,5.3c0.7,0.6,1,1.4,1.1,2.3c0.1,0.9-0.2,1.8-0.8,2.4c-0.6,0.7-1.4,1.1-2.3,1.1c-0.9,0.1-1.8-0.2-2.4-0.9
	c-2.5-2.3-6.2-3.5-10.7-3.5c-9.1,0-14.5,4.9-14.5,13.2c0,8.2,5.4,13.2,14.5,13.2c4.5,0,8.2-1.2,10.7-3.5c0.7-0.6,1.5-0.9,2.4-0.9
	c0.9,0.1,1.7,0.4,2.3,1.1c1.2,1.4,1.1,3.5-0.3,4.8C201.6,101.1,196.4,102.9,190.2,102.9z M202.5,94.4
	C202.5,94.4,202.5,94.4,202.5,94.4C202.5,94.4,202.5,94.4,202.5,94.4z M461.3,102.7c-0.1,0-0.3,0-0.4,0h-9.5c-3.7,0-6.7-3.1-6.7-6.8
	V70.2c0-3.8,3-6.8,6.7-6.8h9.5c7.2-0.1,12.6,1.7,16.2,5.2c3.3,3.3,5,8.2,5,14.4c0,6.3-1.7,11.1-4.9,14.4
	C473.6,101,468.4,102.7,461.3,102.7z M461.1,70c-0.1,0-0.1,0-0.2,0h-9.5c0,0-0.1,0.1-0.1,0.2v25.7c0,0.1,0.1,0.2,0.1,0.2l9.5,0
	c5.5,0,9.2-1,11.4-3.3c2-2,3-5.2,3-9.8c0-4.5-1-7.6-3-9.7C470.2,71.1,466.5,70,461.1,70z"/>
<g>
	<defs>
		<rect id="SVGID_1_" y="20.7" width="124.5" height="124.5"/>
	</defs>
	<clipPath id="SVGID_2_">
		<use xlink:href="#SVGID_1_"  style="overflow:visible;"/>
	</clipPath>
	<g class="st1">
		<g>
			<defs>
				<rect id="SVGID_3_" x="-11.2" y="22.5" width="160" height="120.6"/>
			</defs>
			<clipPath id="SVGID_4_">
				<use xlink:href="#SVGID_3_"  style="overflow:visible;"/>
			</clipPath>
			<g class="st2">
				<path class="st0" d="M116,108H94.9c5.4-7,8.6-15.7,8.6-25.2c0-9.5-3.2-18.2-8.6-25.2H116c3.6,7.6,5.6,16.2,5.6,25.2
					C121.6,91.8,119.6,100.4,116,108z M62.3,108c-13.9,0-25.1-11.3-25.1-25.2c0-13.9,11.2-25.2,25.1-25.2
					c13.9,0,25.1,11.3,25.1,25.2C87.4,96.7,76.2,108,62.3,108z M21.1,82.8c0,22.8,18.4,41.3,41.2,41.3c6.1,0,11.9-1.4,17.1-3.8v19.4
					c-5.4,1.6-11.1,2.5-17.1,2.5c-32.7,0-59.3-26.6-59.3-59.4c0-32.8,26.5-59.4,59.3-59.4c5.9,0,11.7,0.9,17.1,2.5v19.4
					c-5.2-2.4-11-3.8-17.1-3.8C39.6,41.6,21.1,60,21.1,82.8z"/>
			</g>
		</g>
	</g>
</g>
</svg>
