<svg xmlns="http://www.w3.org/2000/svg" width="203" height="203" viewBox="0 0 203 203" fill="none" id="svg-replaced-0" class="style-svg logo-ccd-header-svg replaced-svg svg-replaced-0">
    <path fill-rule="evenodd" clip-rule="evenodd" d="M192.492 144.552H156.568C165.693 132.688 171.178 117.863 171.178 101.722C171.178 85.5624 165.68 70.7215 156.536 58.8489H192.474C198.563 71.8685 201.983 86.3924 201.983 101.722C201.983 117.036 198.568 131.543 192.492 144.552ZM101.105 144.552C77.497 144.552 58.3584 125.368 58.3584 101.703C58.3584 78.0358 77.497 58.8489 101.105 58.8489C124.716 58.8489 143.852 78.0358 143.852 101.703C143.852 125.368 124.716 144.552 101.105 144.552ZM30.9949 101.722C30.9949 140.536 62.3741 172.002 101.087 172.002C111.476 172.002 121.302 169.673 130.172 165.606V198.57C120.964 201.342 111.213 202.849 101.105 202.849C45.3952 202.849 0.230774 157.575 0.230774 101.722C0.230774 45.8696 45.3952 0.592331 101.105 0.592331C111.213 0.592331 120.964 2.10193 130.172 4.87401V37.8354C121.302 33.7686 111.476 31.4424 101.087 31.4424C62.3741 31.4424 30.9949 62.9076 30.9949 101.722Z" fill="#343231"></path>
</svg>
